<svg xmlns="http://www.w3.org/2000/svg" viewBox="0 0 1440 800" preserveAspectRatio="xMidYMid slice">
  <g fill="none" stroke="#e95e2d" stroke-width="2" stroke-opacity="0.15">
    <path d="M-100,400 C200,200 500,600 800,400 C1100,200 1400,600 1700,400" />
    <path d="M-100,420 C220,220 520,620 820,420 C1120,220 1420,620 1720,420" />
    <path d="M-100,440 C240,240 540,640 840,440 C1140,240 1440,640 1740,440" />
    <path d="M-100,460 C260,260 560,660 860,460 C1160,260 1460,660 1760,460" />
    <path d="M-100,480 C280,280 580,680 880,480 C1180,280 1480,680 1780,480" />
    <path d="M-100,500 C300,300 600,700 900,500 C1200,300 1500,700 1800,500" />
    <path d="M-100,380 C180,180 480,580 780,380 C1080,180 1380,580 1680,380" />
  </g>
</svg>
